<?xml version="1.0" standalone="no"?>
<!DOCTYPE svg PUBLIC "-//W3C//DTD SVG 20010904//EN"
 "http://www.w3.org/TR/2001/REC-SVG-20010904/DTD/svg10.dtd">
<svg version="1.0" xmlns="http://www.w3.org/2000/svg"
 width="300.000000pt" height="362.000000pt" viewBox="0 0 300.000000 362.000000"
 preserveAspectRatio="xMidYMid meet">

<g transform="translate(0.000000,362.000000) scale(0.100000,-0.100000)"
fill="#000000" stroke="none">
<path d="M1545 3578 c-16 -5 -41 -13 -55 -17 -32 -8 -38 -43 -13 -74 15 -20
18 -39 15 -129 l-3 -106 -72 2 c-40 1 -81 7 -92 12 -11 6 -36 10 -55 9 -19 -1
-50 5 -67 13 -30 14 -35 14 -68 -4 -39 -21 -42 -26 -20 -44 9 -8 15 -29 15
-56 0 -23 5 -46 10 -49 6 -4 36 7 68 23 55 28 61 29 160 24 85 -4 104 -8 112
-22 12 -23 4 -620 -9 -673 -9 -37 -33 -73 -58 -90 -7 -4 -13 -13 -13 -19 0 -6
-17 -30 -37 -53 -21 -24 -49 -59 -63 -80 -14 -20 -38 -49 -54 -63 -15 -15 -39
-47 -53 -72 -29 -51 -73 -119 -88 -137 -5 -6 -29 -37 -52 -70 -23 -32 -65 -80
-92 -106 -28 -27 -51 -52 -51 -57 0 -4 -30 -46 -67 -93 -38 -47 -106 -136
-153 -198 -47 -61 -89 -117 -95 -123 -5 -6 -16 -23 -24 -39 -8 -15 -34 -50
-58 -78 -24 -28 -43 -54 -43 -57 0 -4 -29 -37 -64 -74 -56 -58 -115 -135 -151
-196 -5 -9 -30 -43 -55 -76 -60 -78 -80 -109 -80 -123 0 -23 33 -31 90 -21 46
8 420 9 1990 7 19 0 82 4 140 9 95 9 145 9 300 -2 25 -2 80 -9 123 -17 94 -16
113 -9 111 44 -1 25 -12 48 -37 79 -64 76 -105 131 -167 223 -64 96 -116 171
-137 195 -14 16 -153 211 -207 290 -17 25 -63 87 -103 139 -40 52 -73 98 -73
103 0 4 -20 34 -45 65 -147 191 -173 226 -198 270 -15 26 -48 80 -72 118 -25
39 -49 80 -54 92 -5 11 -14 24 -20 28 -6 3 -30 37 -55 74 -24 37 -59 79 -77
91 -19 13 -37 29 -41 34 -4 5 -5 84 -2 175 3 92 6 222 8 291 2 69 7 144 11
168 l8 43 81 -2 c44 -1 107 -8 140 -16 74 -17 86 -9 86 62 0 46 -3 53 -25 63
-38 17 -62 15 -86 -9 -34 -34 -123 -50 -188 -32 -23 6 -23 7 -19 122 3 86 8
126 22 154 29 59 -1 80 -79 55z m73 -1190 c7 -7 12 -18 12 -24 0 -7 14 -28 30
-46 17 -18 47 -60 66 -93 37 -63 60 -98 119 -180 73 -102 105 -157 105 -185
l0 -29 -111 -3 c-74 -2 -113 1 -117 8 -12 20 -76 96 -109 130 l-33 33 0 200
c1 205 4 223 38 189z m-146 -175 c0 -27 2 -106 3 -176 l2 -129 -44 -44 c-25
-24 -50 -44 -57 -45 -6 0 -20 -2 -31 -4 -50 -10 -195 -9 -205 1 -8 8 -2 31 24
86 27 55 58 97 122 164 47 49 101 113 121 142 45 66 63 67 65 5z m-225 -496
c56 -30 52 -48 -29 -146 -40 -49 -92 -113 -115 -143 -23 -29 -50 -63 -60 -75
-17 -20 -29 -22 -155 -25 l-138 -5 0 26 c0 39 82 180 115 198 9 5 30 30 48 55
66 93 94 118 147 131 59 15 141 8 187 -16z m453 4 c14 -10 38 -40 53 -67 16
-27 32 -51 36 -54 12 -9 126 -154 137 -175 13 -26 3 -56 -22 -65 -10 -4 -68
-5 -129 -2 l-110 4 -32 37 c-43 47 -52 84 -52 206 0 120 11 144 61 139 18 -2
44 -12 58 -23z m-215 -2 c6 -19 4 -78 -10 -224 -2 -22 -8 -41 -14 -43 -6 -2
-19 -18 -31 -37 -11 -18 -35 -40 -53 -48 -34 -16 -102 -14 -124 5 -20 17 -15
52 11 77 13 12 33 41 45 65 12 23 35 58 52 77 16 19 29 43 29 54 0 24 56 95
75 95 8 0 17 -10 20 -21z m522 5 c65 -7 47 10 195 -187 79 -106 111 -178 88
-201 -5 -5 -42 -3 -87 4 -44 6 -87 10 -98 8 -14 -2 -39 25 -102 112 -46 63
-99 134 -118 157 -36 43 -36 43 -19 75 21 41 33 50 61 43 12 -3 48 -8 80 -11z
m-533 -706 c-5 -164 -11 -266 -17 -270 -14 -9 -247 -10 -310 -2 -35 5 -52 13
-64 30 -23 35 -9 69 56 138 31 34 65 75 76 91 10 17 40 55 66 85 25 30 53 69
62 85 24 48 85 105 113 105 l24 0 -6 -262z m-586 213 c18 -12 32 -28 32 -35 0
-12 -54 -81 -130 -166 -56 -62 -79 -91 -99 -120 -21 -32 -41 -58 -66 -85 -11
-11 -27 -32 -37 -46 -15 -24 -22 -25 -105 -27 -48 -2 -103 -5 -120 -8 -32 -6
-33 -5 -33 28 0 36 24 95 46 113 6 6 39 49 71 98 33 48 72 102 86 120 15 17
47 60 72 94 l46 62 102 -3 c89 -1 107 -5 135 -25z m349 7 c29 -27 29 -49 2
-74 -12 -10 -28 -32 -36 -48 -18 -34 -96 -137 -139 -182 -16 -17 -63 -65 -104
-108 l-74 -77 -81 3 c-73 3 -80 5 -77 23 7 34 36 81 97 155 33 40 65 80 70 89
6 9 12 18 15 21 3 3 24 30 47 60 22 30 63 79 90 108 49 51 50 52 108 52 47 0
64 -5 82 -22z m445 -45 c29 -38 83 -103 118 -147 107 -129 142 -183 150 -228
5 -24 7 -45 5 -46 -2 -2 -86 -5 -187 -5 l-183 -2 -1 85 c-1 47 -2 155 -4 240
-1 85 -2 158 -1 163 0 4 12 7 25 7 17 0 38 -18 78 -67z m324 58 c24 -1 37 -9
56 -39 14 -21 61 -78 104 -127 44 -50 90 -104 102 -122 13 -18 36 -46 52 -62
17 -17 30 -40 30 -54 0 -14 3 -33 6 -41 12 -32 -94 -48 -233 -37 -11 1 -60 65
-212 276 -30 41 -68 87 -83 102 -21 20 -28 36 -28 63 0 20 3 39 6 43 5 5 53 5
200 -2z m369 -32 c22 -10 48 -19 57 -19 26 0 128 -127 226 -282 39 -62 48 -84
48 -120 l-1 -43 -73 3 c-110 6 -121 11 -178 85 -28 37 -64 80 -79 95 -15 15
-43 52 -63 82 -19 30 -54 79 -78 108 -44 54 -58 105 -31 115 22 10 131 -6 172
-24z"/>
<path d="M275 480 c-115 -13 -205 -71 -205 -133 0 -37 37 -53 172 -70 57 -7
113 -19 126 -26 35 -19 29 -62 -13 -100 -40 -35 -33 -33 -135 -37 -66 -2 -124
8 -183 31 -12 5 -17 2 -17 -9 0 -8 19 -25 42 -37 37 -19 53 -21 127 -16 175
13 309 120 237 191 -14 15 -33 26 -43 26 -10 0 -54 4 -99 9 -96 11 -164 36
-164 60 0 53 77 86 194 83 55 -1 72 -5 88 -21 27 -30 52 -26 30 4 -26 37 -83
53 -157 45z"/>
<path d="M1772 478 c-6 -6 -7 -22 -1 -42 5 -18 8 -107 7 -197 -3 -140 -1 -164
12 -167 10 -2 25 17 42 56 15 32 39 71 53 86 35 38 46 25 70 -79 21 -90 29
-105 57 -105 28 0 32 23 9 61 -11 19 -24 60 -30 93 -12 64 -24 86 -50 86 -22
0 -98 -65 -106 -90 -16 -51 -22 -7 -18 133 5 144 4 153 -15 164 -13 8 -23 8
-30 1z"/>
<path d="M1120 460 c0 -3 13 -11 30 -17 16 -6 32 -18 36 -26 5 -13 -59 -130
-92 -168 -16 -17 -37 -17 -98 0 -22 6 -42 8 -45 5 -11 -11 42 -44 70 -44 16 0
29 -3 29 -7 0 -3 -15 -25 -32 -48 -39 -50 -92 -90 -119 -88 -10 1 -19 -2 -19
-6 0 -13 24 -31 42 -31 27 0 104 75 135 131 29 54 33 55 161 62 l72 4 31 -63
c39 -78 50 -89 79 -74 l20 11 -24 32 c-21 28 -47 76 -119 222 -39 81 -62 103
-112 107 -25 2 -45 1 -45 -2z m125 -141 c20 -39 35 -72 33 -74 -2 -2 -38 -6
-80 -10 -61 -6 -78 -5 -78 6 0 12 78 149 85 149 2 0 20 -32 40 -71z"/>
<path d="M549 393 c0 -5 -1 -33 -2 -63 -2 -54 -3 -55 -29 -52 -16 1 -28 -2
-28 -8 0 -5 10 -10 23 -10 38 0 44 -14 33 -78 -10 -65 -5 -92 19 -92 12 0 15
15 15 80 l0 80 28 0 c15 0 34 5 42 10 11 7 6 10 -22 10 -41 0 -50 15 -36 64 6
22 3 35 -9 48 -17 19 -32 24 -34 11z"/>
<path d="M2400 379 c0 -29 18 -59 35 -59 17 0 20 33 5 61 -14 25 -40 24 -40
-2z"/>
<path d="M1565 255 c-62 -28 -94 -62 -101 -106 -10 -61 10 -74 113 -73 66 0
97 5 123 19 19 10 30 20 23 22 -7 2 -20 0 -30 -5 -39 -21 -99 -23 -141 -7 -36
15 -42 22 -42 46 0 17 11 41 28 60 23 25 35 31 72 31 25 1 55 -2 68 -6 15 -5
22 -3 22 6 0 43 -59 48 -135 13z"/>
<path d="M2595 248 c-8 -18 -25 -46 -39 -63 l-25 -30 -1 43 c0 43 -23 69 -40
43 -7 -12 -3 -144 5 -168 7 -20 23 -15 31 10 3 12 20 44 37 70 22 34 35 46 46
41 9 -4 30 -9 46 -12 l30 -5 -21 24 c-12 13 -24 36 -28 52 -9 36 -24 34 -41
-5z"/>
<path d="M2406 173 c7 -113 10 -126 26 -121 9 3 13 35 15 98 2 94 -5 120 -33
120 -12 0 -13 -18 -8 -97z"/>
<path d="M2155 241 c-73 -34 -105 -81 -91 -135 12 -48 112 -56 184 -15 42 24
52 24 52 0 0 -24 23 -43 44 -35 19 7 19 9 4 37 -7 12 -15 49 -18 82 -5 55 -7
60 -30 63 -14 2 -29 8 -34 13 -16 15 -68 10 -111 -10z m112 -24 c7 -7 14 -27
15 -46 3 -29 -2 -38 -31 -58 -43 -30 -115 -32 -130 -4 -13 23 2 82 27 103 32
29 92 31 119 5z"/>
<path d="M2824 244 c-73 -21 -101 -41 -117 -83 -21 -51 -7 -98 30 -107 45 -12
157 -9 196 5 37 12 55 47 20 38 -72 -20 -127 -28 -151 -22 -28 7 -62 32 -62
46 0 8 6 9 123 29 60 11 67 15 67 36 0 39 -20 72 -44 71 -11 0 -39 -6 -62 -13z
m46 -29 c22 -26 4 -42 -55 -50 -31 -3 -59 -4 -62 -1 -11 10 29 46 61 55 43 13
42 13 56 -4z"/>
</g>
</svg>
